<mxfile host="app.diagrams.net" modified="2021-09-07T14:49:19.327Z" agent="5.0 (Windows NT 10.0; Win64; x64) AppleWebKit/537.36 (KHTML, like Gecko) Chrome/93.0.4577.63 Safari/537.36" etag="AgNAw9kVmIyGdke3Uu9Q" version="15.0.4" type="github">
  <diagram id="5hb4bLOHIa7sqgMemTXv" name="Page-1">
    <mxGraphModel dx="1202" dy="513" grid="1" gridSize="10" guides="1" tooltips="1" connect="1" arrows="1" fold="1" page="1" pageScale="1" pageWidth="827" pageHeight="1169" math="0" shadow="0">
      <root>
        <mxCell id="0" />
        <mxCell id="1" parent="0" />
        <mxCell id="FLS0dWkJ_SETFB4-W-Aj-12" style="edgeStyle=orthogonalEdgeStyle;rounded=0;orthogonalLoop=1;jettySize=auto;html=1;exitX=0.5;exitY=1;exitDx=0;exitDy=0;entryX=0.5;entryY=0;entryDx=0;entryDy=0;" edge="1" parent="1" source="FLS0dWkJ_SETFB4-W-Aj-1" target="FLS0dWkJ_SETFB4-W-Aj-2">
          <mxGeometry relative="1" as="geometry" />
        </mxCell>
        <mxCell id="FLS0dWkJ_SETFB4-W-Aj-1" value="" style="ellipse;whiteSpace=wrap;html=1;" vertex="1" parent="1">
          <mxGeometry x="340" y="150" width="120" height="80" as="geometry" />
        </mxCell>
        <mxCell id="FLS0dWkJ_SETFB4-W-Aj-13" style="edgeStyle=orthogonalEdgeStyle;rounded=0;orthogonalLoop=1;jettySize=auto;html=1;exitX=0.5;exitY=1;exitDx=0;exitDy=0;entryX=0.5;entryY=0;entryDx=0;entryDy=0;" edge="1" parent="1" source="FLS0dWkJ_SETFB4-W-Aj-2" target="FLS0dWkJ_SETFB4-W-Aj-3">
          <mxGeometry relative="1" as="geometry" />
        </mxCell>
        <mxCell id="FLS0dWkJ_SETFB4-W-Aj-2" value="" style="rounded=0;whiteSpace=wrap;html=1;" vertex="1" parent="1">
          <mxGeometry x="340" y="260" width="120" height="60" as="geometry" />
        </mxCell>
        <mxCell id="FLS0dWkJ_SETFB4-W-Aj-14" style="edgeStyle=orthogonalEdgeStyle;rounded=0;orthogonalLoop=1;jettySize=auto;html=1;exitX=0.5;exitY=1;exitDx=0;exitDy=0;entryX=0.5;entryY=0;entryDx=0;entryDy=0;" edge="1" parent="1" source="FLS0dWkJ_SETFB4-W-Aj-3" target="FLS0dWkJ_SETFB4-W-Aj-4">
          <mxGeometry relative="1" as="geometry" />
        </mxCell>
        <mxCell id="FLS0dWkJ_SETFB4-W-Aj-3" value="" style="rounded=0;whiteSpace=wrap;html=1;" vertex="1" parent="1">
          <mxGeometry x="340" y="350" width="120" height="60" as="geometry" />
        </mxCell>
        <mxCell id="FLS0dWkJ_SETFB4-W-Aj-15" style="edgeStyle=orthogonalEdgeStyle;rounded=0;orthogonalLoop=1;jettySize=auto;html=1;exitX=0.5;exitY=1;exitDx=0;exitDy=0;entryX=0.5;entryY=0;entryDx=0;entryDy=0;" edge="1" parent="1" source="FLS0dWkJ_SETFB4-W-Aj-4" target="FLS0dWkJ_SETFB4-W-Aj-5">
          <mxGeometry relative="1" as="geometry" />
        </mxCell>
        <mxCell id="FLS0dWkJ_SETFB4-W-Aj-4" value="" style="rounded=0;whiteSpace=wrap;html=1;" vertex="1" parent="1">
          <mxGeometry x="345" y="450" width="110" height="50" as="geometry" />
        </mxCell>
        <mxCell id="FLS0dWkJ_SETFB4-W-Aj-5" value="" style="shape=parallelogram;perimeter=parallelogramPerimeter;whiteSpace=wrap;html=1;fixedSize=1;" vertex="1" parent="1">
          <mxGeometry x="340" y="540" width="120" height="60" as="geometry" />
        </mxCell>
        <mxCell id="FLS0dWkJ_SETFB4-W-Aj-6" style="edgeStyle=orthogonalEdgeStyle;rounded=0;orthogonalLoop=1;jettySize=auto;html=1;exitX=0;exitY=0.5;exitDx=0;exitDy=0;entryX=1;entryY=0.5;entryDx=0;entryDy=0;" edge="1" parent="1" source="FLS0dWkJ_SETFB4-W-Aj-5" target="FLS0dWkJ_SETFB4-W-Aj-5">
          <mxGeometry relative="1" as="geometry">
            <Array as="points">
              <mxPoint x="290" y="570" />
              <mxPoint x="290" y="650" />
              <mxPoint x="500" y="650" />
              <mxPoint x="500" y="570" />
            </Array>
          </mxGeometry>
        </mxCell>
        <mxCell id="FLS0dWkJ_SETFB4-W-Aj-7" value="Start" style="text;html=1;strokeColor=none;fillColor=none;align=center;verticalAlign=middle;whiteSpace=wrap;rounded=0;" vertex="1" parent="1">
          <mxGeometry x="380" y="180" width="40" height="20" as="geometry" />
        </mxCell>
        <mxCell id="FLS0dWkJ_SETFB4-W-Aj-8" value="Initialize GPIO pins" style="text;html=1;strokeColor=none;fillColor=none;align=center;verticalAlign=middle;whiteSpace=wrap;rounded=0;" vertex="1" parent="1">
          <mxGeometry x="380" y="280" width="40" height="20" as="geometry" />
        </mxCell>
        <mxCell id="FLS0dWkJ_SETFB4-W-Aj-9" value="Set Prescaler 800 and Counter 280" style="text;html=1;strokeColor=none;fillColor=none;align=center;verticalAlign=middle;whiteSpace=wrap;rounded=0;" vertex="1" parent="1">
          <mxGeometry x="350" y="370" width="100" height="20" as="geometry" />
        </mxCell>
        <mxCell id="FLS0dWkJ_SETFB4-W-Aj-10" value="Start Timer" style="text;html=1;strokeColor=none;fillColor=none;align=center;verticalAlign=middle;whiteSpace=wrap;rounded=0;" vertex="1" parent="1">
          <mxGeometry x="360" y="465" width="80" height="20" as="geometry" />
        </mxCell>
        <mxCell id="FLS0dWkJ_SETFB4-W-Aj-11" value="Toggle PB1 pin when the interrupts occurs" style="text;html=1;strokeColor=none;fillColor=none;align=center;verticalAlign=middle;whiteSpace=wrap;rounded=0;" vertex="1" parent="1">
          <mxGeometry x="358" y="560" width="84" height="20" as="geometry" />
        </mxCell>
        <mxCell id="FLS0dWkJ_SETFB4-W-Aj-16" value="Ranit Pradhan" style="text;html=1;strokeColor=none;fillColor=none;align=center;verticalAlign=middle;whiteSpace=wrap;rounded=0;" vertex="1" parent="1">
          <mxGeometry x="240" y="230" width="70" height="50" as="geometry" />
        </mxCell>
      </root>
    </mxGraphModel>
  </diagram>
</mxfile>
